<?xml version="1.0" encoding="utf-8"?>
<!-- Generator: Adobe Illustrator 16.0.0, SVG Export Plug-In . SVG Version: 6.00 Build 0)  -->
<!DOCTYPE svg PUBLIC "-//W3C//DTD SVG 1.1//EN" "http://www.w3.org/Graphics/SVG/1.1/DTD/svg11.dtd">
<svg version="1.1" id="图层_1" xmlns="http://www.w3.org/2000/svg" xmlns:xlink="http://www.w3.org/1999/xlink" x="0px" y="0px"
	 width="45px" height="45px" viewBox="0 0 45 45" enable-background="new 0 0 45 45" xml:space="preserve">
<path fill-rule="evenodd" clip-rule="evenodd" fill="#FFFFFF" d="M22.502,24.388c-1.299,0-2.35,1.048-2.35,2.342
	s1.051,2.344,2.35,2.344c1.295,0,2.346-1.05,2.346-2.344S23.797,24.388,22.502,24.388z M23.643,31.26
	c0.008,0.054,0.031,0.101,0.031,0.156v5.086c0,0.648-0.525,1.172-1.172,1.172c-0.65,0-1.176-0.523-1.176-1.172v-5.086
	c0-0.056,0.025-0.103,0.031-0.156c-2.037-0.511-3.553-2.337-3.553-4.53c0-2.588,2.102-4.686,4.697-4.686
	c2.592,0,4.693,2.098,4.693,4.686C27.195,28.923,25.682,30.749,23.643,31.26z M35.414,21.786c0-1.294-1.051-2.344-2.35-2.344h-4.693
	h-11.74h-4.695c-1.297,0-2.348,1.05-2.348,2.344v15.888c0,1.295,1.051,2.344,2.348,2.344h21.129c1.299,0,2.35-1.049,2.35-2.344
	V21.786z M35.414,43.532H9.588c-1.945,0-3.521-1.573-3.521-3.515V19.442c0-1.939,1.576-3.514,3.521-3.514h2.936h0.584h3.523h4.109
	h7.631V7.327c0-1.294-1.053-2.344-2.348-2.344h-7.045c-1.297,0-2.348,1.05-2.348,2.344v2.414c0,0.971-0.789,1.758-1.762,1.758
	c-0.971,0-1.762-0.787-1.762-1.758V9.156V8.571V4.983c0-1.939,1.578-3.516,3.523-3.516h11.74c1.943,0,3.521,1.576,3.521,3.516
	v10.945h3.521c1.945,0,3.52,1.574,3.52,3.514v20.575C38.934,41.959,37.359,43.532,35.414,43.532z"/>
</svg>
