<?xml version="1.0" encoding="utf-8"?>
<!-- Generator: Adobe Illustrator 16.0.0, SVG Export Plug-In . SVG Version: 6.00 Build 0)  -->
<!DOCTYPE svg PUBLIC "-//W3C//DTD SVG 1.1//EN" "http://www.w3.org/Graphics/SVG/1.1/DTD/svg11.dtd">
<svg version="1.1" id="图层_1" xmlns="http://www.w3.org/2000/svg" xmlns:xlink="http://www.w3.org/1999/xlink" x="0px" y="0px"
	 width="45px" height="45px" viewBox="0 0 45 45" enable-background="new 0 0 45 45" xml:space="preserve">
<path fill="#FFFFFF" d="M6.938,7.201C6.873,7.23,6.809,7.257,6.742,7.278C6.475,7.365,6.248,7.495,6.076,7.665
	c-2.27,2.211-0.365,8.998,5.998,15.199l9.598,9.352c6.363,6.2,13.326,8.056,15.596,5.845c0.176-0.169,0.309-0.389,0.398-0.649
	c0.021-0.065,0.047-0.13,0.078-0.191l1.066-3.116c0.014-0.065,0.031-0.133,0.053-0.197c0.207-0.604,0.055-1.252-0.395-1.69
	c-0.109-0.107-0.256-0.202-0.445-0.296c-0.07-0.034-0.139-0.072-0.201-0.114l-4.395-2.142c-0.07-0.022-0.139-0.05-0.207-0.083
	c-0.658-0.319-1.441-0.2-1.951,0.297c-1.984,1.934-5.213,1.934-7.199,0l-9.598-9.353c-1.984-1.935-1.984-5.08,0-7.015
	c0.51-0.498,0.633-1.263,0.305-1.902c-0.035-0.066-0.064-0.135-0.088-0.205l-2.195-4.28c-0.043-0.06-0.084-0.126-0.117-0.193
	c-0.094-0.185-0.193-0.328-0.303-0.434c-0.451-0.438-1.115-0.585-1.734-0.385c-0.068,0.021-0.137,0.038-0.205,0.052L6.938,7.201z
	 M19.602,35.355l-9.939-9.952C2,17.729-0.729,8.439,3.451,4.253c0.512-0.514,1.125-0.907,1.824-1.175
	c0.076-0.04,0.156-0.074,0.236-0.101L9.24,1.732c0.086-0.027,0.174-0.05,0.262-0.065c2.283-0.635,4.736,0.234,5.977,2.48
	c0.053,0.072,0.1,0.15,0.143,0.232l2.482,4.977c0.043,0.088,0.08,0.176,0.107,0.268c0.861,1.983,0.439,4.291-1.094,5.826
	c-0.686,0.686-0.686,1.802,0,2.487l9.938,9.954c0.686,0.687,1.801,0.687,2.486,0c1.533-1.537,3.84-1.958,5.822-1.093
	c0.09,0.027,0.176,0.062,0.26,0.104l4.971,2.489c0.082,0.041,0.164,0.09,0.236,0.143c2.238,1.244,3.107,3.702,2.471,5.985
	c-0.016,0.088-0.035,0.177-0.064,0.263l-1.242,3.73c-0.027,0.085-0.062,0.166-0.102,0.244c-0.268,0.697-0.662,1.309-1.172,1.82
	C36.541,45.764,27.266,43.031,19.602,35.355"/>
</svg>
