<?xml version="1.0" encoding="utf-8"?>
<!-- Generator: Adobe Illustrator 16.0.0, SVG Export Plug-In . SVG Version: 6.00 Build 0)  -->
<!DOCTYPE svg PUBLIC "-//W3C//DTD SVG 1.1//EN" "http://www.w3.org/Graphics/SVG/1.1/DTD/svg11.dtd">
<svg version="1.1" id="图层_1" xmlns="http://www.w3.org/2000/svg" xmlns:xlink="http://www.w3.org/1999/xlink" x="0px" y="0px"
	 width="45px" height="45px" viewBox="0 0 45 45" enable-background="new 0 0 45 45" xml:space="preserve">
<path fill-rule="evenodd" clip-rule="evenodd" fill="#FFFFFF" d="M15.479,14.238c-1.14,0-2.066-0.924-2.066-2.064V5.565
	c0-1.142,0.926-2.065,2.066-2.065c1.142,0,2.066,0.924,2.066,2.065v6.608C17.545,13.314,16.621,14.238,15.479,14.238z M19.196,7.629
	h6.609v3.678h-6.609V7.629z M29.523,14.238c-1.142,0-2.066-0.924-2.066-2.064V5.565c0-1.142,0.924-2.065,2.066-2.065
	c1.14,0,2.064,0.924,2.064,2.065v6.608C31.587,13.314,30.664,14.238,29.523,14.238z M37.7,41.5H7.3c-2.099,0-3.8-1.646-3.8-3.678
	V11.307c0-2.031,1.702-3.678,3.8-3.678h4.461v3.678H9.834c-1.399,0-2.534,1.099-2.534,2.453v21.611c0,1.354,1.135,2.451,2.534,2.451
	h25.334c1.399,0,2.532-1.097,2.532-2.451V13.76c0-1.354-1.133-2.453-2.532-2.453H33.24V7.629h4.46c2.099,0,3.8,1.646,3.8,3.678
	v26.516C41.5,39.854,39.799,41.5,37.7,41.5z"/>
<g>
	<path fill="#FFFFFF" d="M22.854,33.877H13.09v-1.514l1.685-1.77c3.389-3.475,5.265-5.691,5.265-8.1
		c0-1.557-0.746-2.921-2.771-2.921c-1.236,0-2.345,0.661-3.091,1.258l-0.746-1.77c0.98-0.81,2.536-1.492,4.327-1.492
		c3.304,0,4.753,2.238,4.753,4.669c0,2.941-2.003,5.393-4.796,8.207l-1.321,1.343v0.042h6.459V33.877z"/>
	<path fill="#FFFFFF" d="M29.5,33.877V20.085h-0.043l-2.707,1.492l-0.554-1.812l3.624-1.94h2.089v16.052H29.5z"/>
</g>
</svg>
