<?xml version="1.0" encoding="utf-8"?>
<!-- Generator: Adobe Illustrator 16.0.0, SVG Export Plug-In . SVG Version: 6.00 Build 0)  -->
<!DOCTYPE svg PUBLIC "-//W3C//DTD SVG 1.1//EN" "http://www.w3.org/Graphics/SVG/1.1/DTD/svg11.dtd">
<svg version="1.1" id="图层_1" xmlns="http://www.w3.org/2000/svg" xmlns:xlink="http://www.w3.org/1999/xlink" x="0px" y="0px"
	 width="45px" height="45px" viewBox="0 0 45 45" enable-background="new 0 0 45 45" xml:space="preserve">
<path fill-rule="evenodd" clip-rule="evenodd" fill="#FFFFFF" d="M22.5,23.498c-8.211,0-14.544,7.058-14.544,16.21h29.087
	C37.043,30.556,30.711,23.498,22.5,23.498z M22.5,6.206c-3.422,0-5.282,2.51-5.282,6.735c0,4.223,1.86,5.816,5.282,5.816
	s5.282-1.594,5.282-5.816C27.782,8.716,25.922,6.206,22.5,6.206z M39.619,43.531H5.381c-1.135,0-2.055-0.864-2.055-1.932v-2.577
	c0-0.128,0.015-0.254,0.041-0.376c0.415-8.483,5.308-15.56,12.539-18.268c-2.323-2.096-3.318-3.864-3.318-7.438
	c0-6.336,4.438-11.473,9.913-11.473s9.913,5.137,9.913,11.473c0,3.573-0.995,5.342-3.318,7.438
	c7.23,2.708,12.124,9.784,12.538,18.268c0.026,0.122,0.042,0.248,0.042,0.376V41.6C41.674,42.667,40.754,43.531,39.619,43.531z"/>
</svg>
