<?xml version="1.0" encoding="utf-8"?>
<!-- Generator: Adobe Illustrator 16.0.0, SVG Export Plug-In . SVG Version: 6.00 Build 0)  -->
<!DOCTYPE svg PUBLIC "-//W3C//DTD SVG 1.1//EN" "http://www.w3.org/Graphics/SVG/1.1/DTD/svg11.dtd">
<svg version="1.1" id="图层_1" xmlns="http://www.w3.org/2000/svg" xmlns:xlink="http://www.w3.org/1999/xlink" x="0px" y="0px"
	 width="45px" height="45px" viewBox="0 0 45 45" enable-background="new 0 0 45 45" xml:space="preserve">
<path fill-rule="evenodd" clip-rule="evenodd" fill="#FFFFFF" d="M15.635,21.603c-1.762,0-3.191-1.434-3.191-3.202
	c0-1.77,1.43-3.203,3.191-3.203c1.764,0,3.193,1.434,3.193,3.203C18.829,20.169,17.399,21.603,15.635,21.603z M28.668,26.15
	c0.15,0,0.307,0.031,0.453,0.099c0.578,0.264,0.846,0.973,0.594,1.582c-0.078,0.193-2.002,4.736-6.758,4.736
	c-4.76,0-6.682-4.543-6.761-4.736c-0.249-0.608,0.016-1.312,0.591-1.577c0.576-0.268,1.248,0.011,1.502,0.615
	c0.057,0.135,1.43,3.292,4.668,3.292c3.236,0,4.607-3.157,4.664-3.287C27.807,26.42,28.227,26.15,28.668,26.15z M30.245,21.603
	c-1.764,0-3.193-1.434-3.193-3.202c0-1.77,1.43-3.203,3.193-3.203s3.193,1.434,3.193,3.203
	C33.438,20.169,32.008,21.603,30.245,21.603z M22.499,6.039c-9.076,0-16.434,7.371-16.434,16.46c0,9.091,7.358,16.461,16.434,16.461
	c9.078,0,16.436-7.37,16.436-16.461C38.934,13.41,31.577,6.039,22.499,6.039z M22.499,43.532C10.901,43.532,1.5,34.115,1.5,22.499
	c0-11.614,9.401-21.031,20.999-21.031S43.5,10.885,43.5,22.499C43.5,34.115,34.096,43.532,22.499,43.532z"/>
</svg>
