<?xml version="1.0" encoding="utf-8"?>
<!-- Generator: Adobe Illustrator 16.0.0, SVG Export Plug-In . SVG Version: 6.00 Build 0)  -->
<!DOCTYPE svg PUBLIC "-//W3C//DTD SVG 1.1//EN" "http://www.w3.org/Graphics/SVG/1.1/DTD/svg11.dtd">
<svg version="1.1" id="图层_1" xmlns="http://www.w3.org/2000/svg" xmlns:xlink="http://www.w3.org/1999/xlink" x="0px" y="0px"
	 width="23px" height="23px" viewBox="0 0 23 23" enable-background="new 0 0 23 23" xml:space="preserve">
<g>
	<path fill="#FFFFFF" d="M5.8,21.4v-3.495H1.15V1.6h20.7v16.306L11.5,17.629L5.8,21.4z M7.799,17.68l2.597-1.719l0.526-0.35
		l0.632,0.018l8.295,0.225V3.6H3.151v12.307H5.8h1.999V17.68"/>
	<path fill="#FFFFFF" d="M11.5,10.6c-0.745,0-1.351-0.604-1.351-1.351c0-0.745,0.605-1.35,1.351-1.35s1.35,0.604,1.35,1.35
		C12.85,9.996,12.246,10.6,11.5,10.6z M11.5,10.6c-0.745,0-1.351-0.604-1.351-1.351c0-0.745,0.605-1.35,1.351-1.35
		s1.35,0.604,1.35,1.35C12.85,9.996,12.246,10.6,11.5,10.6z M11.5,10.6c-0.745,0-1.351-0.604-1.351-1.351
		c0-0.745,0.605-1.35,1.351-1.35s1.35,0.604,1.35,1.35C12.85,9.996,12.246,10.6,11.5,10.6z M16,10.6c-0.745,0-1.35-0.604-1.35-1.351
		c0-0.745,0.604-1.35,1.35-1.35c0.747,0,1.35,0.604,1.35,1.35C17.35,9.996,16.747,10.6,16,10.6z M16,10.6
		c-0.745,0-1.35-0.604-1.35-1.351c0-0.745,0.604-1.35,1.35-1.35c0.747,0,1.35,0.604,1.35,1.35C17.35,9.996,16.747,10.6,16,10.6z
		 M16,10.6c-0.745,0-1.35-0.604-1.35-1.351c0-0.745,0.604-1.35,1.35-1.35c0.747,0,1.35,0.604,1.35,1.35
		C17.35,9.996,16.747,10.6,16,10.6z M7,10.6c-0.745,0-1.35-0.604-1.35-1.351c0-0.745,0.604-1.35,1.35-1.35
		c0.747,0,1.351,0.604,1.351,1.35C8.35,9.996,7.747,10.6,7,10.6z M7,10.6c-0.745,0-1.35-0.604-1.35-1.351
		c0-0.745,0.604-1.35,1.35-1.35c0.747,0,1.351,0.604,1.351,1.35C8.35,9.996,7.747,10.6,7,10.6z M7,10.6
		c-0.745,0-1.35-0.604-1.35-1.351c0-0.745,0.604-1.35,1.35-1.35c0.747,0,1.351,0.604,1.351,1.35C8.35,9.996,7.747,10.6,7,10.6z"/>
</g>
</svg>
