<?xml version="1.0" encoding="utf-8"?>
<!-- Generator: Adobe Illustrator 16.0.0, SVG Export Plug-In . SVG Version: 6.00 Build 0)  -->
<!DOCTYPE svg PUBLIC "-//W3C//DTD SVG 1.1//EN" "http://www.w3.org/Graphics/SVG/1.1/DTD/svg11.dtd">
<svg version="1.1" id="图层_1" xmlns="http://www.w3.org/2000/svg" xmlns:xlink="http://www.w3.org/1999/xlink" x="0px" y="0px"
	 width="23px" height="23px" viewBox="0 0 23 23" enable-background="new 0 0 23 23" xml:space="preserve">
<path fill="#FFFFFF" d="M18.863,7.169c0.152-1.702-1.373-3.095-3.067-3.095c-3.18,0-3.067,2.475-3.067,2.475
	c0,0.685-0.551,1.238-1.229,1.238c-0.678,0-1.227-0.554-1.227-1.238c0,0,0.112-2.475-3.069-2.475c-1.693,0-3.22,1.393-3.067,3.095
	c0.062,0.698-0.039,1.339,0.017,1.856c0,0-0.015,0-0.017,0c0.076-0.019-0.422,3.646,7.35,9.25c0.005-0.002,0.009-0.006,0.014-0.012
	c0.005,0.006,0.009,0.01,0.014,0.012c7.773-5.604,7.273-9.27,7.35-9.25c-0.002,0-0.016,0-0.016,0
	C18.904,8.508,18.801,7.867,18.863,7.169z M21.318,9.025c0,5.491-9.818,12.375-9.818,12.375S1.682,14.516,1.682,9.025
	c-0.01-0.549,0.046-1.162,0-1.856C1.479,4.1,4.155,1.6,7.204,1.6c1.746,0,3.285,1.201,4.296,2.475
	C12.514,2.801,14.05,1.6,15.796,1.6c3.052,0,5.726,2.5,5.522,5.569C21.271,7.863,21.328,8.477,21.318,9.025z"/>
</svg>
