<?xml version="1.0" encoding="utf-8"?>
<!-- Generator: Adobe Illustrator 16.0.0, SVG Export Plug-In . SVG Version: 6.00 Build 0)  -->
<!DOCTYPE svg PUBLIC "-//W3C//DTD SVG 1.1//EN" "http://www.w3.org/Graphics/SVG/1.1/DTD/svg11.dtd">
<svg version="1.1" id="图层_1" xmlns="http://www.w3.org/2000/svg" xmlns:xlink="http://www.w3.org/1999/xlink" x="0px" y="0px"
	 width="23px" height="23px" viewBox="0 0 23 23" enable-background="new 0 0 23 23" xml:space="preserve">
<path fill="#FFFFFF" d="M20.247,10.537c-0.171-0.287-0.474-0.424-0.772-0.406v-0.016h-0.002l-6.248-0.006
	c-0.488,0-0.885-0.414-0.885-0.922c0-0.146,0.041-0.281,0.098-0.402l-0.017-0.014c0.351-0.684,0.582-1.436,0.729-2.219l0.039,0.002
	c0,0,0.119-0.5,0.117-1.451c-0.002-0.758-0.134-1.447-0.134-1.447h-0.012c0-0.014,0.007-0.025,0.007-0.039
	c0-0.477-0.371-0.861-0.827-0.861c-0.458,0-0.829,0.385-0.829,0.861c0,0.021,0.01,0.037,0.012,0.059h-0.021
	c0,0,0.016,0.721-0.124,1.465c-0.058,0.314-0.139,0.598-0.214,0.83c-0.01-0.006-0.022-0.006-0.032-0.012
	c-0.742,2.363-2.604,4.176-4.935,4.795L6.191,20.24l11.54,0.004c0,0,0.002,0.002,0.004,0.002c0.152,0.002,0.306-0.027,0.442-0.117
	c0.149-0.1,0.244-0.244,0.308-0.402l0.015,0.008l1.841-8.454l-0.017-0.006C20.398,11.033,20.385,10.768,20.247,10.537z M2.65,20.238
	h1.77l0.008-9.201l-1.77,0.006L2.65,20.238z M22.117,11.258c0.003,0.088,0.008,0.176-0.016,0.266l-1.914,8.785
	c-0.023,0.097-0.072,0.176-0.121,0.256h0.002c-0.004,0.013-0.012,0.019-0.017,0.027c-0.014,0.02-0.022,0.039-0.036,0.059
	c-0.205,0.4-0.49,0.761-0.886,1.021c-0.437,0.289-0.924,0.422-1.405,0.42v-0.004L5.362,22.08c-0.02,0.002-0.037,0.014-0.058,0.014
	c-0.02,0-0.037-0.012-0.058-0.014H1.828c-0.022,0-0.042,0.014-0.064,0.014c-0.488,0-0.885-0.412-0.885-0.922l0.008-11.057
	c0-0.508,0.397-0.92,0.885-0.92c0.013,0,0.025,0.008,0.039,0.008l3.008-0.006V9.152c2.734-0.209,4.9-2.547,4.921-5.439
	C9.738,3.67,9.728,3.629,9.728,3.586c0-1.48,1.154-2.68,2.577-2.68c1.223,0,2.241,0.885,2.504,2.074l0.015-0.002
	c0.146,0.678,0.227,1.383,0.227,2.107c0,1.119-0.202,2.184-0.542,3.182l4.967,0.006c0.058,0,0.106,0.023,0.16,0.033
	c0.836,0.039,1.635,0.475,2.107,1.268c0.293,0.49,0.404,1.039,0.376,1.572c0.003,0.025,0,0.051,0.002,0.078
	C22.119,11.236,22.119,11.248,22.117,11.258z"/>
</svg>
