<?xml version="1.0" encoding="utf-8"?>
<!-- Generator: Adobe Illustrator 16.0.0, SVG Export Plug-In . SVG Version: 6.00 Build 0)  -->
<!DOCTYPE svg PUBLIC "-//W3C//DTD SVG 1.1//EN" "http://www.w3.org/Graphics/SVG/1.1/DTD/svg11.dtd">
<svg version="1.1" id="图层_1" xmlns="http://www.w3.org/2000/svg" xmlns:xlink="http://www.w3.org/1999/xlink" x="0px" y="0px"
	 width="23px" height="23px" viewBox="0 0 23 23" enable-background="new 0 0 23 23" xml:space="preserve">
<g>
	<path fill="#FFFFFF" d="M17.046,22.301c-1.667,0-3.019-1.383-3.019-3.086c0-1.705,1.352-3.088,3.019-3.088s3.017,1.383,3.017,3.088
		C20.062,20.918,18.713,22.301,17.046,22.301z M17.046,6.871c-1.667,0-3.019-1.381-3.019-3.086c0-1.703,1.352-3.086,3.019-3.086
		s3.017,1.383,3.017,3.086C20.062,5.49,18.713,6.871,17.046,6.871z M5.981,14.07c-1.667,0-3.019-1.381-3.019-3.086
		c0-1.703,1.352-3.084,3.019-3.084s3.017,1.381,3.017,3.084C8.998,12.689,7.648,14.07,5.981,14.07z"/>
	<polyline fill="#FFFFFF" points="17.264,1.613 18.354,3.291 6.383,11.068 17.499,19.707 16.27,21.285 5.156,12.646 2.937,10.92 
		5.293,9.389 17.264,1.613 	"/>
</g>
</svg>
