<?xml version="1.0" encoding="utf-8"?>
<!-- Generator: Adobe Illustrator 16.0.0, SVG Export Plug-In . SVG Version: 6.00 Build 0)  -->
<!DOCTYPE svg PUBLIC "-//W3C//DTD SVG 1.1//EN" "http://www.w3.org/Graphics/SVG/1.1/DTD/svg11.dtd">
<svg version="1.1" id="图层_1" xmlns="http://www.w3.org/2000/svg" xmlns:xlink="http://www.w3.org/1999/xlink" x="0px" y="0px"
	 width="159.999px" height="40px" viewBox="0 0 159.999 40" enable-background="new 0 0 159.999 40" xml:space="preserve">
<g>
	<path d="M94.974,37.493L63.913,20L94.974,2.507L126.036,20L94.974,37.493z M94.974,36.345L123.997,20L94.974,3.654L65.951,20
		L94.974,36.345"/>
	<path d="M123.927,37.493L92.864,20l31.062-17.493L154.987,20L123.927,37.493z M123.927,36.345L152.95,20L123.927,3.654L94.903,20
		L123.927,36.345"/>
	<path d="M36.073,37.493L5.011,20L36.073,2.507L67.133,20L36.073,37.493z M36.073,36.345L65.097,20L36.073,3.654L7.049,20
		L36.073,36.345"/>
	<path d="M65.024,37.493L33.963,20L65.024,2.507L96.087,20L65.024,37.493z M65.024,36.345L94.048,20L65.024,3.654L36.001,20
		L65.024,36.345"/>
</g>
</svg>
