<?xml version="1.0" encoding="utf-8"?>
<!-- Generator: Adobe Illustrator 16.0.0, SVG Export Plug-In . SVG Version: 6.00 Build 0)  -->
<!DOCTYPE svg PUBLIC "-//W3C//DTD SVG 1.1//EN" "http://www.w3.org/Graphics/SVG/1.1/DTD/svg11.dtd">
<svg version="1.1" id="图层_1" xmlns="http://www.w3.org/2000/svg" xmlns:xlink="http://www.w3.org/1999/xlink" x="0px" y="0px"
	 width="85px" height="170px" viewBox="0 0 85 170" enable-background="new 0 0 85 170" xml:space="preserve">
<g>
	<g>
		<g>
			<path fill-rule="evenodd" clip-rule="evenodd" fill="#1A1C23" d="M42.508,107.526c-3.553-6.402-6.758-12.24-10.023-18.045
				c-1.861-3.303-3.908-6.503-5.703-9.84c-1.121-2.083-2.389-2.801-4.852-2.188c-8.461,2.105-15.162-1.066-19.236-8.816
				c4.615-4.6,13.625-4.364,19.24,0.504c5.617,4.869,5.637,4.906,12.193,1.087c2.045-1.191,3.939-2.634,6.387-4.289
				c-3.744-3.102-6.035-6.683-11.385-7.157c-10.271-0.911-18.371-8.925-20.541-19.069c-0.309-1.439-0.354-4.442-0.354-4.442
				s2.166,1.537,2.342,2.572c1.754,10.373,9.578,17.895,19.955,18.656C16.635,40.837,8.578,18.092,11.15,1.771
				c0.549-0.168,1.605,17.207,5.977,26.171c7.154-4.483,7.572-10.263,5.236-17.606c0.365-0.087,2.221,1.351,2.516,2.154
				c2.115,5.766,0.346,12.54-4.809,16.797c-1.629,1.349-2.148,2.306-1.316,4.393c4.965,12.46,13.486,22.077,23.832,30.678
				c10.365-8.666,18.949-18.385,23.959-30.952c0.783-1.962,0.117-2.873-1.312-4.087c-5.178-4.402-7.154-9.971-5.316-16.636
				c0.26-0.949,1.145-1.727,2.318-2.365c-1.877,7.388-0.676,13.45,5.822,18.326c3.678-8.623,4.01-17.667,5.316-26.52
				c2,10.116-0.322,19.616-3.508,29.003c-3.205,9.445-8.451,17.699-15.518,25.548c6.393-0.636,11.51-2.759,14.705-7.373
				c2.961-4.272,4.809-9.313,7.725-14.158c-0.105,1.711,0.066,3.496-0.365,5.12c-2.688,10.127-9.271,16.26-19.488,18.463
				c-6.398,1.381-6.564,2.797-12.312,7.621c4.268,2.38,8.326,4.831,12.592,6.845c0.76,0.357,2.682-0.822,3.547-1.768
				c6.162-6.712,14.307-8.068,21.422-3.394c-1.566,6.862-10.15,11.733-18.012,9.658c-3.275-0.864-4.709-0.094-6.232,2.687
				C53.072,89.241,47.965,97.967,42.508,107.526z M42.58,102.87c5.213-9.294,10.062-17.94,14.812-26.408
				c-4.598-2.733-8.91-5.342-13.281-7.852c-0.672-0.386-1.834-0.711-2.391-0.394c-4.666,2.658-9.246,5.474-13.953,8.304
				C32.635,85.18,37.441,93.726,42.58,102.87z M6.355,69.338c1.879,5.531,11.352,8.782,16.783,4.937
				C18.971,67.999,12.498,66.095,6.355,69.338z M78.957,69.212c-7.15-2.979-13.516-0.938-16.883,5.263
				C68.795,78.025,76.518,74.582,78.957,69.212z"/>
		</g>
	</g>
	<g>
		<path fill="#1A1C23" d="M46.049,117.599v44.887l-9.855,2.421V120.02L46.049,117.599z M38.615,121.216v41.172l4.955-1.254v-41.142
			L38.615,121.216z M58.158,130.327c-0.732,1.183-1.465,2.365-2.254,3.436h8.844c-3.436,6.139-8.055,11.376-13.35,15.656h-3.885
			c2.76-1.971,5.35-4.167,7.717-6.646c-1.016-1.126-2.141-2.196-3.268-3.154h3.154l1.52,1.577c1.689-1.858,3.211-3.942,4.619-6.082
			h-6.365c-1.408,1.915-2.984,3.717-4.674,5.351h-3.436c3.324-2.929,6.252-6.309,8.674-10.138H58.158z M54.385,112.305
			c-1.127,2.984-2.592,5.856-4.393,8.504h-2.705c1.916-2.647,3.492-5.52,4.676-8.504H54.385z M61.143,145.308
			c-1.127,1.858-2.365,3.661-3.66,5.294h9.293c-3.83,7.04-9.182,12.897-15.377,17.629h-4.055c3.492-2.422,6.76-5.125,9.744-8.167
			c-1.238-1.183-2.535-2.309-3.941-3.379h3.66l1.857,1.634c1.691-1.972,3.268-4.056,4.732-6.364h-7.041
			c-1.633,1.971-3.436,3.717-5.35,5.35h-3.719c4.281-3.322,8.111-7.321,11.096-11.996H61.143z M54.328,119.457
			c0.844,1.295,1.803,2.478,2.816,3.604c1.014-1.127,1.914-2.31,2.816-3.604h2.533c-1.127,1.915-2.422,3.604-3.83,5.237
			c2.479,2.422,5.295,4.506,8.279,6.083v2.647c-3.547-1.803-6.928-4.168-9.799-7.097c-2.93,2.929-6.252,5.294-9.801,7.097v-2.647
			c2.986-1.577,5.803-3.661,8.279-6.083c-1.408-1.633-2.703-3.322-3.83-5.237H54.328z M64.748,120.809
			c-1.24-2.985-2.816-5.857-4.732-8.504h2.703c1.746,2.646,3.211,5.519,4.451,8.504H64.748z"/>
	</g>
	<g>
		<path fill="#1A1C23" d="M11.252,107.357v44.887l-9.855,2.421v-44.887L11.252,107.357z M3.818,110.975v41.172l4.957-1.254v-41.142
			L3.818,110.975z M23.361,120.086c-0.732,1.183-1.465,2.365-2.252,3.436h8.842c-3.436,6.139-8.055,11.376-13.348,15.656h-3.887
			c2.76-1.971,5.35-4.167,7.717-6.646c-1.014-1.126-2.141-2.196-3.268-3.154h3.154l1.52,1.577c1.691-1.858,3.211-3.942,4.619-6.082
			h-6.363c-1.408,1.915-2.986,3.717-4.676,5.351h-3.436c3.324-2.929,6.252-6.309,8.674-10.138H23.361z M19.588,102.063
			c-1.127,2.984-2.59,5.856-4.393,8.504h-2.703c1.914-2.647,3.492-5.52,4.674-8.504H19.588z M26.346,135.066
			c-1.125,1.858-2.365,3.661-3.66,5.294h9.293c-3.83,7.04-9.18,12.897-15.375,17.629h-4.055c3.49-2.422,6.758-5.125,9.742-8.167
			c-1.238-1.183-2.533-2.309-3.941-3.379h3.66l1.859,1.634c1.689-1.972,3.266-4.056,4.73-6.364h-7.041
			c-1.633,1.971-3.436,3.717-5.35,5.35h-3.717c4.279-3.322,8.109-7.321,11.094-11.996H26.346z M19.531,109.216
			c0.846,1.295,1.803,2.478,2.816,3.604c1.014-1.127,1.914-2.31,2.816-3.604h2.533c-1.125,1.915-2.422,3.604-3.828,5.237
			c2.477,2.422,5.293,4.506,8.277,6.083v2.647c-3.547-1.803-6.926-4.168-9.799-7.097c-2.928,2.929-6.252,5.294-9.799,7.097v-2.647
			c2.984-1.577,5.801-3.661,8.277-6.083c-1.406-1.633-2.703-3.322-3.828-5.237H19.531z M29.951,110.567
			c-1.24-2.985-2.816-5.857-4.73-8.504h2.703c1.746,2.646,3.209,5.519,4.449,8.504H29.951z"/>
	</g>
	<g>
		<path fill="#7A7069" d="M83.605,93.999v0.215l-0.055,0.053H71.652l-0.055-0.053v-0.188c0-0.384,0.152-0.67,0.455-0.857v-0.026
			c-0.32-0.501-0.482-1.162-0.482-1.983c0-1.354,0.555-2.283,1.662-2.787c0.385-0.144,0.812-0.215,1.287-0.215h2.707
			c0.91,0,1.652,0.366,2.225,1.099c0.32,0.479,0.482,0.996,0.482,1.555v2.198l0.053,0.053h2.842
			C83.346,93.155,83.605,93.468,83.605,93.999z M77.172,89.389h-2.438c-0.836,0-1.363,0.17-1.582,0.51
			c-0.232,0.326-0.348,0.755-0.348,1.286c0,0.831,0.25,1.385,0.75,1.662c0.264,0.143,0.791,0.214,1.58,0.214h3.592v-1.902
			C78.727,89.979,78.209,89.389,77.172,89.389z"/>
		<path fill="#7A7069" d="M79.934,99.54c0,1.246-0.367,2.086-1.1,2.52c-0.496,0.357-1.041,0.536-1.635,0.536h-1.152
			c-0.344,0-0.604-0.224-0.777-0.67c-0.035-0.071-0.053-0.17-0.053-0.295v-3.913h-1.02c-0.621,0-1.066,0.34-1.34,1.019
			c-0.053,0.245-0.08,0.54-0.08,0.885v2.144c-0.121,0.554-0.424,0.831-0.912,0.831h-0.24l-0.055-0.054v-3.056
			c0-1.456,0.555-2.394,1.662-2.813c0.305-0.125,0.662-0.188,1.072-0.188h2.627c1.398,0,2.336,0.58,2.814,1.741
			C79.871,98.584,79.934,99.022,79.934,99.54z M76.771,97.718h-0.35v3.511c0,0.107,0.055,0.161,0.16,0.161h0.482
			c0.752,0,1.26-0.312,1.529-0.938c0.07-0.179,0.107-0.401,0.107-0.67v-0.268c0-0.925-0.314-1.497-0.939-1.716
			C77.449,97.744,77.119,97.718,76.771,97.718z"/>
		<path fill="#7A7069" d="M79.934,108.237c0,1.246-0.367,2.086-1.1,2.52c-0.496,0.357-1.041,0.536-1.635,0.536h-1.152
			c-0.344,0-0.604-0.224-0.777-0.67c-0.035-0.071-0.053-0.17-0.053-0.295v-3.913h-1.02c-0.621,0-1.066,0.34-1.34,1.019
			c-0.053,0.245-0.08,0.54-0.08,0.885v2.144c-0.121,0.554-0.424,0.831-0.912,0.831h-0.24l-0.055-0.054v-3.056
			c0-1.456,0.555-2.394,1.662-2.813c0.305-0.125,0.662-0.188,1.072-0.188h2.627c1.398,0,2.336,0.58,2.814,1.741
			C79.871,107.281,79.934,107.72,79.934,108.237z M76.771,106.415h-0.35v3.511c0,0.107,0.055,0.161,0.16,0.161h0.482
			c0.752,0,1.26-0.312,1.529-0.938c0.07-0.179,0.107-0.401,0.107-0.67v-0.268c0-0.925-0.314-1.497-0.939-1.716
			C77.449,106.441,77.119,106.415,76.771,106.415z"/>
		<path fill="#7A7069" d="M79.934,113.933v0.135c0,0.397-0.162,0.701-0.482,0.911v0.054c0.303,0.455,0.455,0.938,0.455,1.447v0.724
			l-0.053,0.054h-0.188c-0.295,0-0.555-0.125-0.777-0.376c-0.062-0.062-0.162-0.366-0.295-0.911
			c-0.277-0.554-0.814-0.831-1.609-0.831h-5.359l-0.055-0.053v-0.215c0-0.607,0.357-0.938,1.072-0.991h7.236L79.934,113.933z"/>
		<path fill="#7A7069" d="M83.605,125.451v0.215l-0.055,0.053H71.652l-0.055-0.053v-0.188c0-0.384,0.152-0.67,0.455-0.857v-0.026
			c-0.32-0.501-0.482-1.162-0.482-1.983c0-1.354,0.555-2.283,1.662-2.787c0.385-0.144,0.812-0.215,1.287-0.215h2.707
			c0.91,0,1.652,0.366,2.225,1.099c0.32,0.479,0.482,0.996,0.482,1.555v2.198l0.053,0.053h2.842
			C83.346,124.607,83.605,124.92,83.605,125.451z M77.172,120.841h-2.438c-0.836,0-1.363,0.17-1.582,0.51
			c-0.232,0.326-0.348,0.755-0.348,1.286c0,0.831,0.25,1.385,0.75,1.662c0.264,0.143,0.791,0.214,1.58,0.214h3.592v-1.902
			C78.727,121.431,78.209,120.841,77.172,120.841z"/>
		<path fill="#7A7069" d="M79.934,130.992c0,1.246-0.367,2.086-1.1,2.52c-0.496,0.357-1.041,0.536-1.635,0.536h-1.152
			c-0.344,0-0.604-0.224-0.777-0.67c-0.035-0.071-0.053-0.17-0.053-0.295v-3.913h-1.02c-0.621,0-1.066,0.34-1.34,1.019
			c-0.053,0.245-0.08,0.54-0.08,0.885v2.144c-0.121,0.554-0.424,0.831-0.912,0.831h-0.24l-0.055-0.054v-3.056
			c0-1.456,0.555-2.394,1.662-2.813c0.305-0.125,0.662-0.188,1.072-0.188h2.627c1.398,0,2.336,0.58,2.814,1.741
			C79.871,130.036,79.934,130.475,79.934,130.992z M76.771,129.17h-0.35v3.511c0,0.107,0.055,0.161,0.16,0.161h0.482
			c0.752,0,1.26-0.312,1.529-0.938c0.07-0.179,0.107-0.401,0.107-0.67v-0.268c0-0.925-0.314-1.497-0.939-1.716
			C77.449,129.196,77.119,129.17,76.771,129.17z"/>
		<path fill="#7A7069" d="M79.934,139.415v3.27l-0.055,0.054h-8.254l-0.055-0.054v-0.214c0-0.371,0.17-0.666,0.51-0.885
			c-0.34-0.456-0.51-1.01-0.51-1.662v-3.27l0.055-0.054h5.629c1.26,0,2.098,0.59,2.518,1.77
			C79.879,138.683,79.934,139.031,79.934,139.415z M77.092,137.834H72.83l-0.053,0.054v1.554c0,1.086,0.322,1.729,0.965,1.93
			c0.291,0.09,0.576,0.135,0.857,0.135h4.102v-1.957C78.701,138.405,78.164,137.834,77.092,137.834z"/>
		<path fill="#7A7069" d="M79.934,145.385v0.135c0,0.397-0.162,0.701-0.482,0.911v0.054c0.303,0.455,0.455,0.938,0.455,1.447v0.724
			l-0.053,0.054h-0.188c-0.295,0-0.555-0.125-0.777-0.376c-0.062-0.062-0.162-0.366-0.295-0.911
			c-0.277-0.554-0.814-0.831-1.609-0.831h-5.359l-0.055-0.053v-0.215c0-0.607,0.357-0.938,1.072-0.991h7.236L79.934,145.385z"/>
	</g>
</g>
</svg>
