<?xml version="1.0" encoding="utf-8"?>
<!-- Generator: Adobe Illustrator 16.0.0, SVG Export Plug-In . SVG Version: 6.00 Build 0)  -->
<!DOCTYPE svg PUBLIC "-//W3C//DTD SVG 1.1//EN" "http://www.w3.org/Graphics/SVG/1.1/DTD/svg11.dtd">
<svg version="1.1" id="图层_1" xmlns="http://www.w3.org/2000/svg" xmlns:xlink="http://www.w3.org/1999/xlink" x="0px" y="0px"
	 width="80px" height="103px" viewBox="0 0 80 103" enable-background="new 0 0 80 103" xml:space="preserve">
<g>
	<g>
		<path fill-rule="evenodd" clip-rule="evenodd" fill="#1A1C23" d="M40.072,102.064c-3.397-6.122-6.462-11.704-9.584-17.255
			c-1.78-3.158-3.737-6.219-5.454-9.409c-1.072-1.992-2.284-2.679-4.639-2.092C12.304,75.322,5.896,72.289,2,64.878
			c4.413-4.398,13.029-4.173,18.398,0.481c5.372,4.656,5.39,4.692,11.66,1.04c1.956-1.14,3.767-2.519,6.107-4.102
			c-3.58-2.966-5.771-6.391-10.887-6.844C17.457,54.583,9.711,46.92,7.637,37.219c-0.295-1.376-0.338-4.248-0.338-4.248
			s2.071,1.471,2.239,2.46c1.677,9.919,9.159,17.111,19.082,17.84C15.331,38.294,7.627,16.544,10.087,0.938
			c0.525-0.161,1.535,16.454,5.715,25.025c6.841-4.287,7.241-9.813,5.007-16.836c0.349-0.083,2.124,1.291,2.405,2.06
			c2.023,5.514,0.331,11.991-4.598,16.062c-1.558,1.289-2.054,2.204-1.259,4.2c4.748,11.914,12.896,21.11,22.789,29.335
			c9.912-8.287,18.12-17.58,22.911-29.598c0.749-1.876,0.112-2.747-1.255-3.908c-4.951-4.209-6.841-9.534-5.083-15.907
			c0.249-0.908,1.094-1.651,2.217-2.262c-1.795,7.064-0.646,12.861,5.567,17.523c3.517-8.245,3.834-16.894,5.084-25.358
			c1.912,9.674-0.308,18.758-3.354,27.733c-3.065,9.032-8.081,16.925-14.838,24.43c6.113-0.607,11.006-2.638,14.062-7.05
			c2.832-4.086,4.598-8.906,7.387-13.539c-0.101,1.636,0.063,3.343-0.35,4.896c-2.57,9.684-8.866,15.548-18.635,17.654
			c-6.118,1.32-6.277,2.675-11.773,7.288c4.081,2.275,7.961,4.619,12.041,6.545c0.727,0.342,2.564-0.786,3.392-1.69
			c5.893-6.418,13.681-7.715,20.484-3.245c-1.498,6.562-9.706,11.22-17.224,9.235c-3.132-0.826-4.502-0.089-5.959,2.569
			C50.174,84.58,45.29,92.924,40.072,102.064z M40.141,97.612c4.985-8.888,9.622-17.155,14.164-25.253
			c-4.396-2.613-8.52-5.107-12.7-7.508c-0.643-0.368-1.754-0.68-2.286-0.376c-4.462,2.542-8.841,5.234-13.343,7.94
			C30.631,80.696,35.227,88.868,40.141,97.612z M5.502,65.548c1.796,5.289,10.854,8.397,16.048,4.72
			C17.565,64.268,11.375,62.446,5.502,65.548z M74.926,65.427c-6.837-2.848-12.924-0.897-16.144,5.032
			C65.208,73.854,72.593,70.562,74.926,65.427z"/>
	</g>
</g>
</svg>
