<?xml version="1.0" encoding="utf-8"?>
<!-- Generator: Adobe Illustrator 16.0.0, SVG Export Plug-In . SVG Version: 6.00 Build 0)  -->
<!DOCTYPE svg PUBLIC "-//W3C//DTD SVG 1.1//EN" "http://www.w3.org/Graphics/SVG/1.1/DTD/svg11.dtd">
<svg version="1.1" id="图层_1" xmlns="http://www.w3.org/2000/svg" xmlns:xlink="http://www.w3.org/1999/xlink" x="0px" y="0px"
	 width="60px" height="60px" viewBox="0 0 60 60" enable-background="new 0 0 60 60" xml:space="preserve">
<g>
	<g>
		<path fill="#FFFFFF" d="M41.141,21.009c0.289,0,0.573,0.005,0.856,0.019c-1.501-8.172-9.942-14.429-20.13-14.429
			C10.617,6.599,1.5,14.225,1.5,23.633c0,5.516,3.133,10.421,7.994,13.532c0.063,0.04,0.187,0.117,0.187,0.117l-1.969,6.165
			l7.363-3.75c0,0,0.23,0.067,0.347,0.1c2.024,0.563,4.192,0.869,6.445,0.869c0.459,0,0.916-0.018,1.369-0.043
			c-0.418-1.294-0.647-2.657-0.647-4.064C22.588,27.971,30.896,21.009,41.141,21.009z M28.953,14.997
			c1.581,0,2.858,1.239,2.858,2.77c0,1.528-1.277,2.77-2.858,2.77c-1.58,0-2.858-1.241-2.858-2.77
			C26.095,16.236,27.373,14.997,28.953,14.997z M14.779,20.536c-1.58,0-2.859-1.241-2.859-2.77c0-1.53,1.279-2.77,2.859-2.77
			c1.581,0,2.862,1.239,2.862,2.77C17.641,19.295,16.36,20.536,14.779,20.536z"/>
	</g>
	<path fill="#FFFFFF" d="M24.087,36.66c0,7.949,7.704,14.392,17.209,14.392c1.902,0,3.732-0.259,5.443-0.736
		c0.098-0.026,0.292-0.085,0.292-0.085l6.218,3.171l-1.661-5.209c0,0,0.106-0.066,0.158-0.1c4.104-2.629,6.754-6.771,6.754-11.433
		c0-7.947-7.704-14.389-17.204-14.389C31.791,22.271,24.087,28.713,24.087,36.66z M44.864,31.704c0-1.29,1.081-2.337,2.416-2.337
		c1.336,0,2.417,1.047,2.417,2.337c0,1.293-1.081,2.341-2.417,2.341C45.945,34.045,44.864,32.997,44.864,31.704z M32.89,31.704
		c0-1.29,1.082-2.337,2.417-2.337s2.417,1.047,2.417,2.337c0,1.293-1.082,2.341-2.417,2.341S32.89,32.997,32.89,31.704z"/>
</g>
</svg>
