<?xml version="1.0" encoding="utf-8"?>
<!-- Generator: Adobe Illustrator 16.0.0, SVG Export Plug-In . SVG Version: 6.00 Build 0)  -->
<!DOCTYPE svg PUBLIC "-//W3C//DTD SVG 1.1//EN" "http://www.w3.org/Graphics/SVG/1.1/DTD/svg11.dtd">
<svg version="1.1" id="图层_1" xmlns="http://www.w3.org/2000/svg" xmlns:xlink="http://www.w3.org/1999/xlink" x="0px" y="0px"
	 width="60px" height="60px" viewBox="0 0 60 60" enable-background="new 0 0 60 60" xml:space="preserve">
<g>
	<g>
		<path fill="#FFFFFF" d="M44.405,30.717c-2.253-0.437-1.158-1.648-1.158-1.648s2.205-3.637-0.436-6.277
			c-3.274-3.274-11.229,0.415-11.229,0.415c-3.038,0.943-2.232-0.431-1.803-2.767c0-2.752-0.943-7.412-9.037-4.658
			C12.659,18.549,5.717,28.238,5.717,28.238C0.89,34.683,1.528,39.66,1.528,39.66c1.207,10.99,12.885,14.01,21.969,14.727
			c9.557,0.747,22.455-3.296,26.365-11.604C53.772,34.461,46.667,31.169,44.405,30.717z M24.203,51.285
			C14.717,51.73,7.047,46.971,7.047,40.641c0-6.339,7.67-11.421,17.155-11.857c9.495-0.44,17.179,3.474,17.179,9.798
			C41.381,44.911,33.698,50.854,24.203,51.285z"/>
		<path fill="#FFFFFF" d="M22.311,32.955c-9.542,1.119-8.439,10.056-8.439,10.056s-0.097,2.832,2.559,4.271
			c5.584,3.025,11.332,1.193,14.237-2.558C33.574,40.974,31.868,31.848,22.311,32.955z M19.905,45.502
			c-1.781,0.209-3.217-0.818-3.217-2.309c0-1.485,1.275-3.038,3.057-3.226c2.047-0.194,3.379,0.983,3.379,2.475
			C23.124,43.928,21.679,45.298,19.905,45.502z M25.53,40.712c-0.604,0.448-1.348,0.384-1.665-0.154
			c-0.333-0.528-0.208-1.374,0.402-1.819c0.708-0.523,1.442-0.372,1.761,0.153C26.348,39.433,26.118,40.244,25.53,40.712z"/>
	</g>
	<path fill="#FFFFFF" d="M58.216,25.709c0.044-0.179,0.073-0.359,0.075-0.551c0.129-0.843,0.209-1.7,0.209-2.555
		c0-9.417-7.662-17.078-17.078-17.078c-1.305,0-2.361,1.058-2.361,2.36c0,1.305,1.057,2.362,2.361,2.362
		c6.812,0,12.354,5.542,12.354,12.355c0,0.759-0.068,1.519-0.205,2.26l0.027,0.003c-0.009,0.09-0.025,0.178-0.025,0.271
		c0,1.304,1.055,2.361,2.36,2.361c1.101,0,2.017-0.756,2.278-1.774h0.003C58.214,25.718,58.214,25.712,58.216,25.709z"/>
	<path fill="#FFFFFF" d="M50.824,23.488c0.026-0.292,0.057-0.583,0.057-0.885c0-5.217-4.244-9.46-9.459-9.46
		c-1.086,0-1.969,0.883-1.969,1.968c0,1.089,0.883,1.967,1.969,1.967c3.045,0,5.523,2.479,5.523,5.525
		c0,0.24-0.016,0.477-0.045,0.71l0.046,0.006c-0.009,0.078-0.046,0.148-0.046,0.228c0,1.089,0.881,1.969,1.967,1.969
		c0.995,0,1.783-0.751,1.916-1.707l0.021,0.003c0.006-0.049,0.003-0.102,0.009-0.15c0.001-0.04,0.023-0.074,0.023-0.114
		C50.836,23.525,50.824,23.511,50.824,23.488z"/>
</g>
</svg>
