<?xml version="1.0" encoding="utf-8"?>
<!-- Generator: Adobe Illustrator 16.0.0, SVG Export Plug-In . SVG Version: 6.00 Build 0)  -->
<!DOCTYPE svg PUBLIC "-//W3C//DTD SVG 1.1//EN" "http://www.w3.org/Graphics/SVG/1.1/DTD/svg11.dtd">
<svg version="1.1" id="图层_1" xmlns="http://www.w3.org/2000/svg" xmlns:xlink="http://www.w3.org/1999/xlink" x="0px" y="0px"
	 width="120px" height="120px" viewBox="0 0 120 120" enable-background="new 0 0 120 120" xml:space="preserve">
<g>
	<g>
		<path fill="#FFFFFF" d="M74.152,60.704c-2.214-0.429-1.139-1.619-1.139-1.619s2.167-3.573-0.428-6.168
			c-3.217-3.217-11.032,0.408-11.032,0.408c-2.984,0.927-2.193-0.423-1.771-2.719c0-2.703-0.927-7.282-8.879-4.576
			C42.962,48.749,36.142,58.27,36.142,58.27c-4.742,6.331-4.115,11.222-4.115,11.222c1.186,10.798,12.659,13.765,21.583,14.469
			c9.391,0.733,22.062-3.238,25.904-11.4C83.355,64.383,76.374,61.148,74.152,60.704z M54.304,80.912
			c-9.319,0.438-16.854-4.238-16.854-10.458c0-6.228,7.535-11.221,16.854-11.649c9.329-0.433,16.878,3.413,16.878,9.626
			C71.182,74.65,63.633,80.489,54.304,80.912z"/>
		<path fill="#FFFFFF" d="M52.445,62.903c-9.375,1.1-8.292,9.88-8.292,9.88s-0.095,2.782,2.515,4.195
			c5.485,2.973,11.133,1.173,13.987-2.513C63.511,70.781,61.834,61.815,52.445,62.903z M50.081,75.23
			c-1.75,0.205-3.161-0.804-3.161-2.269c0-1.459,1.254-2.984,3.004-3.169c2.011-0.19,3.32,0.967,3.32,2.432
			C53.244,73.684,51.824,75.03,50.081,75.23z M55.607,70.524c-0.594,0.44-1.323,0.377-1.636-0.151
			c-0.327-0.52-0.205-1.351,0.396-1.788c0.695-0.514,1.417-0.365,1.729,0.151C56.411,69.268,56.186,70.064,55.607,70.524z"/>
	</g>
	<path fill="#FFFFFF" d="M87.722,55.784c0.044-0.176,0.072-0.354,0.074-0.541c0.127-0.828,0.205-1.671,0.205-2.51
		c0-9.253-7.527-16.779-16.779-16.779c-1.282,0-2.319,1.039-2.319,2.319c0,1.281,1.037,2.32,2.319,2.32
		c6.693,0,12.138,5.445,12.138,12.14c0,0.745-0.067,1.491-0.202,2.22l0.027,0.003c-0.009,0.088-0.025,0.175-0.025,0.266
		c0,1.281,1.037,2.32,2.319,2.32c1.082,0,1.981-0.743,2.238-1.743h0.003C87.72,55.793,87.72,55.787,87.722,55.784z"/>
	<path fill="#FFFFFF" d="M80.459,53.603c0.026-0.287,0.056-0.573,0.056-0.869c0-5.126-4.169-9.295-9.293-9.295
		c-1.067,0-1.934,0.867-1.934,1.934c0,1.069,0.866,1.933,1.934,1.933c2.992,0,5.427,2.435,5.427,5.429
		c0,0.235-0.016,0.468-0.044,0.697l0.045,0.006c-0.009,0.076-0.045,0.146-0.045,0.224c0,1.069,0.865,1.934,1.933,1.934
		c0.978,0,1.751-0.737,1.882-1.677l0.021,0.003c0.006-0.048,0.003-0.1,0.009-0.147c0.001-0.04,0.022-0.073,0.022-0.112
		C80.471,53.639,80.459,53.624,80.459,53.603z"/>
</g>
<path fill="#FFFFFF" d="M99,119H21.001C9.954,119,1,110.047,1,99V21C1,9.953,9.954,1,21.001,1H99c11.047,0,20,8.953,20,20v78
	C119,110.047,110.047,119,99,119z M99,117.001c9.926,0,18.002-8.075,18.002-18.001V21c0-9.926-8.076-18-18.002-18H21.001
	C11.075,3,3,11.074,3,21v78c0,9.926,8.075,18.001,18.001,18.001H99"/>
</svg>
