<?xml version="1.0" encoding="utf-8"?>
<!-- Generator: Adobe Illustrator 16.0.0, SVG Export Plug-In . SVG Version: 6.00 Build 0)  -->
<!DOCTYPE svg PUBLIC "-//W3C//DTD SVG 1.1//EN" "http://www.w3.org/Graphics/SVG/1.1/DTD/svg11.dtd">
<svg version="1.1" id="图层_1" xmlns="http://www.w3.org/2000/svg" xmlns:xlink="http://www.w3.org/1999/xlink" x="0px" y="0px"
	 width="120px" height="120px" viewBox="0 0 120 120" enable-background="new 0 0 120 120" xml:space="preserve">
<g>
	<path fill="#FFFFFF" d="M48.558,69.146c1.263-1.431,17.504-10.602,17.504-10.602l-21.206-2.862l28.359-0.337
		c0,0,1.01,0.841,0,2.021c-1.009,1.179-16.072,11.528-16.072,11.528l17.128,1.372l-0.521-3.038L87.5,53.825l-19.001-2.76L60,33.845
		l-8.499,17.221L32.5,53.825l13.75,13.402l-3.245,18.928L60,77.22l16.995,8.936l-2.664-15.54l-25.773,1.141
		C48.558,71.756,47.296,70.577,48.558,69.146z"/>
	<polygon fill="#FFFFFF" points="74.271,70.266 74.331,70.615 77.086,70.492 	"/>
</g>
<path fill="#FFFFFF" d="M99,119H21.001C9.954,119,1,110.047,1,99V21C1,9.953,9.954,1,21.001,1H99c11.047,0,20,8.953,20,20v78
	C119,110.047,110.047,119,99,119z M99,117.001c9.926,0,18.002-8.075,18.002-18.001V21c0-9.926-8.076-18-18.002-18H21.001
	C11.075,3,3,11.074,3,21v78c0,9.926,8.075,18.001,18.001,18.001H99"/>
</svg>
