<?xml version="1.0" encoding="utf-8"?>
<!-- Generator: Adobe Illustrator 16.0.0, SVG Export Plug-In . SVG Version: 6.00 Build 0)  -->
<!DOCTYPE svg PUBLIC "-//W3C//DTD SVG 1.1//EN" "http://www.w3.org/Graphics/SVG/1.1/DTD/svg11.dtd">
<svg version="1.1" id="图层_1" xmlns="http://www.w3.org/2000/svg" xmlns:xlink="http://www.w3.org/1999/xlink" x="0px" y="0px"
	 width="120px" height="120px" viewBox="0 0 120 120" enable-background="new 0 0 120 120" xml:space="preserve">
<g>
	<g>
		<path fill="#FFFFFF" d="M71.727,50.535c0.305,0,0.603,0.006,0.902,0.02c-1.58-8.602-10.465-15.188-21.19-15.188
			C39.597,35.367,30,43.395,30,53.298c0,5.806,3.298,10.969,8.415,14.244c0.066,0.042,0.197,0.124,0.197,0.124l-2.072,6.489
			l7.75-3.947c0,0,0.243,0.07,0.365,0.104c2.131,0.593,4.413,0.915,6.784,0.915c0.484,0,0.963-0.019,1.44-0.045
			c-0.439-1.362-0.681-2.798-0.681-4.278C52.198,57.864,60.944,50.535,71.727,50.535z M58.899,44.207
			c1.663,0,3.008,1.305,3.008,2.916c0,1.608-1.345,2.915-3.008,2.915c-1.665,0-3.01-1.307-3.01-2.915
			C55.889,45.512,57.234,44.207,58.899,44.207z M43.978,50.038c-1.663,0-3.01-1.307-3.01-2.915c0-1.611,1.347-2.916,3.01-2.916
			c1.665,0,3.013,1.305,3.013,2.916C46.991,48.731,45.643,50.038,43.978,50.038z"/>
	</g>
	<path fill="#FFFFFF" d="M53.775,67.011c0,8.367,8.111,15.149,18.115,15.149c2.002,0,3.929-0.272,5.73-0.775
		c0.104-0.027,0.308-0.089,0.308-0.089l6.545,3.337l-1.749-5.482c0,0,0.112-0.07,0.167-0.105C87.211,76.278,90,71.918,90,67.011
		c0-8.365-8.109-15.146-18.11-15.146C61.886,51.864,53.775,58.646,53.775,67.011z M75.647,61.794c0-1.358,1.138-2.46,2.542-2.46
		c1.407,0,2.545,1.102,2.545,2.46c0,1.361-1.138,2.464-2.545,2.464C76.785,64.258,75.647,63.155,75.647,61.794z M63.042,61.794
		c0-1.358,1.139-2.46,2.543-2.46c1.406,0,2.544,1.102,2.544,2.46c0,1.361-1.139,2.464-2.544,2.464
		C64.181,64.258,63.042,63.155,63.042,61.794z"/>
</g>
<path fill="#FFFFFF" d="M99,119H21C9.954,119,1,110.047,1,99V21C1,9.953,9.954,1,21,1H99c11.047,0,20,8.953,20,20v78
	C119,110.047,110.046,119,99,119z M99,117.001c9.926,0,18.002-8.075,18.002-18.001V21c0-9.926-8.076-18-18.002-18H21
	C11.075,3,3,11.074,3,21v78c0,9.926,8.075,18.001,18.001,18.001H99"/>
</svg>
