<?xml version="1.0" encoding="utf-8"?>
<!-- Generator: Adobe Illustrator 16.0.0, SVG Export Plug-In . SVG Version: 6.00 Build 0)  -->
<!DOCTYPE svg PUBLIC "-//W3C//DTD SVG 1.1//EN" "http://www.w3.org/Graphics/SVG/1.1/DTD/svg11.dtd">
<svg version="1.1" id="图层_1" xmlns="http://www.w3.org/2000/svg" xmlns:xlink="http://www.w3.org/1999/xlink" x="0px" y="0px"
	 width="120px" height="120px" viewBox="0 0 120 120" enable-background="new 0 0 120 120" xml:space="preserve">
<g>
	<rect x="39.652" y="38.924" fill="#FFFFFF" width="40.694" height="4.582"/>
	<path fill="#FFFFFF" d="M76.81,66.209v-17.92h-33.62v17.92H76.81z M48.065,52.869h23.919v8.762H48.065V52.869z"/>
	<path fill="#FFFFFF" d="M69.537,76.541c1.463-2.24,2.843-4.838,4.122-7.785l-4.89-1.781c-1.271,3.49-2.754,6.686-4.438,9.566H55.82
		c-1.412-3.732-3.003-6.924-4.789-9.566l-4.499,1.781c1.855,2.783,3.351,5.373,4.499,7.785H38.5v4.535h43v-4.535H69.537z"/>
</g>
<path fill="#FFFFFF" d="M99,119H21.001C9.954,119,1,110.047,1,99V21C1,9.953,9.954,1,21.001,1H99c11.047,0,20,8.953,20,20v78
	C119,110.047,110.047,119,99,119z M99,117.001c9.926,0,18.002-8.075,18.002-18.001V21c0-9.926-8.076-18-18.002-18H21.001
	C11.075,3,3,11.074,3,21v78c0,9.926,8.075,18.001,18.001,18.001H99"/>
</svg>
