<?xml version="1.0" encoding="utf-8"?>
<!-- Generator: Adobe Illustrator 16.0.0, SVG Export Plug-In . SVG Version: 6.00 Build 0)  -->
<!DOCTYPE svg PUBLIC "-//W3C//DTD SVG 1.1//EN" "http://www.w3.org/Graphics/SVG/1.1/DTD/svg11.dtd">
<svg version="1.1" id="图层_1" xmlns="http://www.w3.org/2000/svg" xmlns:xlink="http://www.w3.org/1999/xlink" x="0px" y="0px"
	 width="120px" height="120px" viewBox="0 0 120 120" enable-background="new 0 0 120 120" xml:space="preserve">
<g>
	<path fill="#FFFFFF" d="M52.781,35.025L69.888,56.03l0.447-19.884C67.17,34.77,63.675,33.999,60,33.999
		C57.494,33.999,55.072,34.363,52.781,35.025z"/>
	<path fill="#FFFFFF" d="M37.236,47.445l26.947,2.754L50.442,35.825c-3.216,1.266-6.231,3.192-8.826,5.79
		C39.843,43.386,38.39,45.354,37.236,47.445z"/>
	<path fill="#FFFFFF" d="M35.024,67.218l21.004-17.106l-19.881-0.447C34.768,52.832,34,56.324,34,59.999
		C34,62.505,34.362,64.926,35.024,67.218z"/>
	<path fill="#FFFFFF" d="M47.444,82.763l2.754-26.947L35.827,69.56c1.262,3.213,3.188,6.228,5.789,8.825
		C43.385,80.156,45.355,81.612,47.444,82.763z"/>
	<path fill="#FFFFFF" d="M67.217,84.975L50.112,63.97l-0.449,19.884c3.168,1.377,6.66,2.147,10.337,2.147
		C62.504,86.001,64.925,85.637,67.217,84.975z"/>
	<path fill="#FFFFFF" d="M82.762,72.555l-26.947-2.754l13.744,14.374c3.212-1.266,6.228-3.192,8.825-5.79
		C80.158,76.614,81.611,74.646,82.762,72.555z"/>
	<path fill="#FFFFFF" d="M84.974,52.782L63.969,69.889l19.884,0.447C85.229,67.168,86,63.676,86,59.999
		C86,57.495,85.636,55.074,84.974,52.782z"/>
	<path fill="#FFFFFF" d="M72.556,37.237L69.8,64.185L84.174,50.44c-1.266-3.213-3.189-6.228-5.79-8.825
		C76.613,39.844,74.645,38.388,72.556,37.237z"/>
</g>
<path fill="#FFFFFF" d="M99,119H21.001C9.954,119,1,110.047,1,99V21C1,9.953,9.954,1,21.001,1H99c11.047,0,20,8.953,20,20v78
	C119,110.047,110.047,119,99,119z M99,117.001c9.926,0,18.002-8.075,18.002-18.001V21c0-9.926-8.076-18-18.002-18H21.001
	C11.075,3,3,11.074,3,21v78c0,9.926,8.075,18.001,18.001,18.001H99"/>
</svg>
